<?xml version="1.0" encoding="utf-8"?>
<!-- Generator: Adobe Illustrator 12.0.0, SVG Export Plug-In . SVG Version: 6.00 Build 51448)  -->
<!DOCTYPE svg PUBLIC "-//W3C//DTD SVG 1.1//EN" "http://www.w3.org/Graphics/SVG/1.1/DTD/svg11.dtd" [
	<!ENTITY ns_svg "http://www.w3.org/2000/svg">
	<!ENTITY ns_xlink "http://www.w3.org/1999/xlink">
]>
<svg  version="1.1" id="レイヤー_1" xmlns="&ns_svg;" xmlns:xlink="&ns_xlink;" width="166.028" height="59.566"
	 viewBox="0 0 166.028 59.566" overflow="visible" enable-background="new 0 0 166.028 59.566" xml:space="preserve">
<g>
	<path fill="#EF7D1C" d="M2.335,13.768c0-1.715-0.438-2.773-1.167-2.919L0,10.667V8.586h10.292c4.489,0,6.861,2.336,6.861,6.095
		c0,2.737-1.314,4.379-2.08,4.963v0.037c1.533,1.277,2.226,2.956,2.226,5c0,4.562-2.408,6.898-6.058,6.898H0v-2.081l1.168-0.182
		c0.876-0.183,1.167-1.242,1.167-2.919V13.768z M6.459,18.221h3.285c2.007,0,3.029-1.24,3.029-3.212
		c0-2.299-1.277-3.832-2.482-3.832H7.7c-0.766,0-1.241,0.985-1.241,2.774V18.221z M9.744,29.023c1.971,0,3.029-2.335,3.029-4.38
		c0-2.299-1.205-3.904-3.138-3.904H6.459v5.657c0,1.678,0.475,2.627,1.241,2.627H9.744z"/>
	<path fill="#EF7D1C" d="M26.167,21.579v4.817c0,1.678,0.402,2.846,1.715,2.992l0.84,0.11v2.081h-9.014v-2.081l1.167-0.182
		c0.876-0.183,1.167-1.242,1.167-2.919V13.768c0-1.715-0.438-2.773-1.167-2.919l-1.167-0.183V8.586h10.291
		c4.671,0,6.861,2.336,6.861,6.095c0,2.92-1.277,4.562-2.664,5.328v0.073c1.24,0.912,1.716,2.299,1.897,4.307
		c0.183,2.08,0.329,3.065,0.913,3.065c0.547,0,0.693-1.205,0.693-2.007v-1.679h2.117v1.679c0,5.073-1.387,6.387-3.54,6.387
		c-2.627,0-3.686-1.387-4.197-5.839c-0.219-2.117-0.803-4.416-2.481-4.416H26.167z M27.408,11.761c-0.766,0-1.241,0.438-1.241,2.19
		v4.16h3.832c1.205,0,2.482-1.131,2.482-3.103c0-2.299-1.277-3.248-2.482-3.248H27.408z"/>
	<path fill="#EF7D1C" d="M48.1,20.739v5.985c0,1.459,0.548,2.518,2.409,2.518c2.555,0,3.175-1.861,3.175-4.124V23.33h2.299v8.248
		H41.64v-2.081l1.168-0.182c0.876-0.146,1.167-1.242,1.167-2.919V13.768c0-1.715-0.438-2.773-1.167-2.919l-1.168-0.183V8.586h14.342
		v7.956h-2.299v-1.533c0-2.737-1.46-4.16-3.175-4.16c-1.861,0-2.409,0.875-2.409,2.554v4.745h3.613v2.592H48.1z"/>
	<path fill="#EF7D1C" d="M62.917,26.396c0,1.678,0.292,2.7,1.204,2.919l0.803,0.182v2.081h-6.678v-2.081l1.167-0.182
		c0.876-0.183,1.168-1.242,1.168-2.919V13.768c0-1.715-0.438-2.773-1.168-2.919l-1.167-0.183V8.586h8.175l4.817,13.102h0.037v-7.92
		c0-1.715-0.438-2.773-1.168-2.919l-1.167-0.183V8.586h7.007v2.081l-1.132,0.183c-0.766,0.146-1.204,1.204-1.204,2.919v17.81h-4.233
		l-6.387-17.81h-0.073V26.396z"/>
	<path fill="#EF7D1C" d="M79.959,13.768c0-1.715-0.438-2.773-1.167-2.919l-1.168-0.183V8.586h10.292
		c4.489,0,7.664,3.249,7.664,11.751c0,6.24-3.795,11.241-8.94,11.241h-9.015v-2.081l1.168-0.182
		c0.875-0.183,1.167-1.242,1.167-2.919V13.768z M85.324,11.177c-1.167,0-1.241,1.095-1.241,2.774v12.445
		c0,1.678,0.365,2.554,1.131,2.554h1.679c2.664,0,3.759-5.401,3.759-8.978c0-7.335-1.277-8.795-2.847-8.795H85.324z"/>
	<path fill="#EF7D1C" d="M103.936,20.739v5.985c0,1.459,0.548,2.518,2.409,2.518c2.554,0,3.175-1.861,3.175-4.124V23.33h2.299v8.248
		H97.477v-2.081l1.167-0.182c0.876-0.146,1.168-1.242,1.168-2.919V13.768c0-1.715-0.438-2.773-1.168-2.919l-1.167-0.183V8.586
		h14.342v7.956h-2.299v-1.533c0-2.737-1.459-4.16-3.175-4.16c-1.861,0-2.409,0.875-2.409,2.554v4.745h3.614v2.592H103.936z"/>
	<path fill="#EF7D1C" d="M120.54,21.579v4.817c0,1.678,0.402,2.846,1.716,2.992l0.84,0.11v2.081h-9.015v-2.081l1.167-0.182
		c0.876-0.183,1.167-1.242,1.167-2.919V13.768c0-1.715-0.438-2.773-1.167-2.919l-1.167-0.183V8.586h10.292
		c4.671,0,6.86,2.336,6.86,6.095c0,2.92-1.277,4.562-2.664,5.328v0.073c1.24,0.912,1.715,2.299,1.897,4.307
		c0.183,2.08,0.329,3.065,0.913,3.065c0.547,0,0.694-1.205,0.694-2.007v-1.679h2.116v1.679c0,5.073-1.387,6.387-3.54,6.387
		c-2.628,0-3.687-1.387-4.197-5.839c-0.22-2.117-0.803-4.416-2.482-4.416H120.54z M121.782,11.761c-0.767,0-1.242,0.438-1.242,2.19
		v4.16h3.833c1.204,0,2.48-1.131,2.48-3.103c0-2.299-1.277-3.248-2.48-3.248H121.782z"/>
	<path fill="#211815" d="M12.846,42.129c-0.255-1.095-0.693-2.117-1.241-2.811c-0.657-0.839-2.445-2.043-4.015-2.043
		c-2.043,0-2.993,1.569-2.993,2.992c-0.037,2.08,1.278,2.737,4.051,3.54c4.781,1.424,6.897,3.394,6.897,7.773
		c0,4.124-2.847,6.897-6.569,6.897c-1.387,0-2.627-0.474-3.43-0.875c-0.839-0.402-1.497-0.73-2.081-0.73
		c-0.583,0-0.985,0.73-1.313,1.387H0.329v-7.847h1.825c0.182,0.985,0.547,1.788,1.131,2.701c0.913,1.459,2.737,2.664,5.219,2.664
		c1.532,0,2.664-1.314,2.664-2.774c0-2.081-1.935-2.957-3.14-3.468L5.183,48.37c-3.285-1.387-4.598-3.431-4.598-7.081
		c0-3.868,2.956-6.277,6.569-6.277c1.131,0,2.335,0.219,3.028,0.439c0.584,0.182,1.132,0.364,1.679,0.364
		c0.438,0,0.73-0.292,0.985-0.547h1.789v6.861H12.846z"/>
	<path fill="#211815" d="M19.889,40.45c0-1.715-0.438-2.773-1.167-2.919l-1.168-0.183v-2.08h8.795v2.08l-1.168,0.183
		c-0.73,0.146-1.168,1.204-1.168,2.919v4.417c0.183,0,0.402-0.183,0.511-0.365l4.599-5.949c0.146-0.146,0.292-0.402,0.292-0.584
		c0-0.218-0.474-0.438-0.948-0.51l-0.839-0.11v-2.08h8.795v2.08l-1.205,0.183c-0.511,0.073-1.24,0.985-2.263,2.299l-4.562,5.84
		l4.452,7.408c0.912,1.533,1.861,2.773,2.81,2.919l1.314,0.183v2.081h-9.343V56.18l0.803-0.109c0.292-0.074,0.511-0.365,0.511-0.767
		c0-0.365-0.218-0.913-0.547-1.46l-2.811-4.635l-1.569,2.044v1.825c0,1.679,0.292,2.738,1.205,2.919l1.168,0.183v2.081h-8.832V56.18
		l1.168-0.183c0.876-0.182,1.167-1.241,1.167-2.919V40.45z"/>
	<path fill="#211815" d="M45.07,47.421v5.985c0,1.46,0.548,2.519,2.409,2.519c2.555,0,3.175-1.861,3.175-4.124v-1.788h2.299v8.248
		H38.611V56.18l1.168-0.183c0.876-0.146,1.167-1.241,1.167-2.919V40.45c0-1.715-0.438-2.773-1.167-2.919l-1.168-0.183v-2.08h14.342
		v7.956h-2.299v-1.533c0-2.737-1.46-4.161-3.175-4.161c-1.861,0-2.409,0.876-2.409,2.555v4.744h3.613v2.591H45.07z"/>
	<path fill="#211815" d="M55.8,35.268h15.693v9.16H69.34v-2.043c0-2.153-0.548-4.525-2.117-4.525c-1.387,0-1.533,2.153-1.533,3.541
		v11.678c0,1.679,0.292,2.738,1.241,2.919l1.131,0.183v2.081H59.23V56.18l1.168-0.183c0.913-0.182,1.204-1.241,1.204-2.919V41.4
		c0-1.387-0.146-3.541-1.533-3.541c-1.569,0-2.117,2.372-2.117,4.525v2.043H55.8V35.268z"/>
	<path fill="#211815" d="M85.616,45.998c0-3.613-1.168-8.613-4.015-8.613c-2.19,0-2.627,2.007-2.627,4.051v9.708
		c0,2.882,0.985,5,3.138,5c2.19,0,3.504-1.424,3.504-5.475h3.759c0,3.905-2.08,7.809-7.372,7.809c-5.767,0-7.957-4.67-7.957-9.123
		v-6.059c0-3.832,2.956-8.285,7.555-8.285c1.058,0,2.007,0.219,2.956,0.693c0.584,0.329,1.314,0.621,1.752,0.621
		c0.364,0,0.584-0.219,0.584-1.168h2.481v10.84H85.616z"/>
	<path fill="#211815" d="M98.279,44.867h5.985V40.45c0-1.715-0.438-2.773-1.24-2.919l-1.131-0.183v-2.08h8.795v2.08l-1.131,0.183
		c-0.766,0.146-1.204,1.204-1.204,2.919v12.627c0,1.679,0.292,2.738,1.204,2.919l1.131,0.183v2.081h-8.795V56.18l1.131-0.183
		c0.948-0.182,1.24-1.241,1.24-2.919v-5h-5.985v5c0,1.679,0.292,2.738,1.205,2.919l1.168,0.183v2.081H91.82V56.18l1.167-0.183
		c0.876-0.182,1.167-1.241,1.167-2.919V40.45c0-1.715-0.438-2.773-1.167-2.919l-1.167-0.183v-2.08h8.795v2.08l-1.131,0.183
		c-0.766,0.146-1.205,1.204-1.205,2.919V44.867z"/>
</g>
<g>
	<path fill="#E7211A" d="M132.06,45.008c0,0-1.917,0.107-1.463,1.168c0.457,1.063-4.746,2.23,0,3.189
		c4.749,0.955,1.004-1.169,2.919-2.019C135.436,46.497,134.888,44.479,132.06,45.008z"/>
	<path fill="none" stroke="#E7211A" stroke-width="2.3036" stroke-linecap="round" stroke-linejoin="round" d="M131.734,48.245
		c0,0,13.335,4.856,1.611,6.083c-11.721,1.225-23.445,3.677-14.607,4.087"/>
	
		<line fill="none" stroke="#211815" stroke-width="0.6838" stroke-linecap="round" stroke-linejoin="round" x1="134.907" y1="40.049" x2="133.312" y2="45.52"/>
	<path fill="none" stroke="#211815" stroke-width="2.0513" stroke-linecap="round" stroke-linejoin="round" d="M142.931,31.814
		c0,0,8.499-0.286,10.43-4.965c1.393-3.375-0.823-5.494,0.794-7.648c2.317-3.085,5.86-1.51,5.704-4.782
		c-0.384-8.092,1.638-4.143,3.931-7.137c1.293-1.688,2.947-9.755-3.308-4.505c-8.775,7.367-21.539,23.322-25.869,38.476"/>
</g>
<path fill="#D31577" d="M115.92,41.879c0.904,1.257,1.344,0.656,1.71-0.468c0.366-1.124,3.058-0.381,2.036,1.312
	c-1.018,1.687-0.575,2.042,0.203,2.67c0.815,0.655,0,3.278-1.424,1.499c-1.425-1.78-1.466-0.235-1.548,1.124
	c-0.082,1.358-1.832,1.264-1.791-0.094c0.041-1.358,1.018-1.732-1.262-1.639c-2.28,0.093-2.729-1.78-1.181-2.013
	c1.547-0.234,1.751-0.095,1.425-1.827C113.764,40.708,114.944,40.522,115.92,41.879z"/>
<path fill="#2296D4" d="M121.627,34.426c0.65,0.597,0.887,0.244,1.042-0.382c0.155-0.625,1.893-0.441,1.363,0.537
	c-0.526,0.975-0.224,1.129,0.304,1.401c0.556,0.284,0.217,1.741-0.793,0.908c-1.012-0.834-0.936-0.011-0.896,0.717
	c0.038,0.728-1.066,0.814-1.131,0.09c-0.063-0.724,0.524-1-0.899-0.772c-1.425,0.228-1.83-0.731-0.874-0.977
	c0.954-0.244,1.091-0.187,0.772-1.08C120.196,33.974,120.925,33.782,121.627,34.426z"/>
<path fill="#EF7D1C" d="M137.583,16.591c0,0,0.276,1.064,1.698,1.55c1.421,0.483,3.763-0.484,4.176-1.647
	c0.412-1.162,0.825-2.808-0.689-4.018c-1.514-1.21-1.375-0.727-1.972-1.985c-0.596-1.258-1.514-1.937-2.157-2.565
	c-0.643-0.63-1.377,0.097-0.873,1.016c0.506,0.919,2.34,3.146,1.561,3.098c-0.781-0.048-1.744-1.113-2.844-1.694
	c-1.102-0.581-2.111,0.387-1.102,1.064c1.009,0.678,2.845,1.065,2.478,1.694c-0.367,0.629-2.891,0.484-3.396,0.436
	s-1.79,1.162-0.276,1.405c1.514,0.242,1.882-0.146,2.754-0.098C137.813,14.896,136.987,15.963,137.583,16.591z"/>
</svg>
